<mxfile host="app.diagrams.net" modified="2021-06-14T09:32:45.269Z" agent="5.0 (Macintosh; Intel Mac OS X 10_15_7) AppleWebKit/537.36 (KHTML, like Gecko) Chrome/91.0.4472.77 Safari/537.36" etag="Pxn00zlcLY8vxCrSRyGP" version="14.7.2" type="github">
  <diagram id="hA1sp-DxIH5g-bwAQe9q" name="Page-1">
    <mxGraphModel dx="2125" dy="834" grid="1" gridSize="10" guides="1" tooltips="1" connect="1" arrows="1" fold="1" page="1" pageScale="1" pageWidth="827" pageHeight="1169" math="0" shadow="0">
      <root>
        <mxCell id="0" />
        <mxCell id="1" parent="0" />
        <mxCell id="8eiHBntBhr2UdLw32bqL-26" value="1：N" style="edgeStyle=orthogonalEdgeStyle;rounded=0;orthogonalLoop=1;jettySize=auto;html=1;exitX=1;exitY=0.5;exitDx=0;exitDy=0;endArrow=classic;endFill=1;entryX=0;entryY=0.5;entryDx=0;entryDy=0;" edge="1" parent="1" source="8eiHBntBhr2UdLw32bqL-1" target="8eiHBntBhr2UdLw32bqL-3">
          <mxGeometry relative="1" as="geometry">
            <mxPoint x="190" y="470" as="targetPoint" />
            <Array as="points">
              <mxPoint x="80" y="410" />
              <mxPoint x="80" y="510" />
              <mxPoint x="180" y="510" />
            </Array>
          </mxGeometry>
        </mxCell>
        <mxCell id="8eiHBntBhr2UdLw32bqL-1" value="消息通知&lt;br&gt;&amp;lt;&amp;lt;Root&amp;gt;&amp;gt;" style="rounded=0;whiteSpace=wrap;html=1;fillColor=#d80073;strokeColor=#A50040;fontColor=#ffffff;" vertex="1" parent="1">
          <mxGeometry x="20" y="380" width="120" height="60" as="geometry" />
        </mxCell>
        <mxCell id="8eiHBntBhr2UdLw32bqL-27" value="1：1" style="edgeStyle=orthogonalEdgeStyle;rounded=0;orthogonalLoop=1;jettySize=auto;html=1;exitX=1;exitY=0.5;exitDx=0;exitDy=0;endArrow=classic;endFill=1;entryX=0;entryY=0.5;entryDx=0;entryDy=0;" edge="1" parent="1" source="8eiHBntBhr2UdLw32bqL-2" target="8eiHBntBhr2UdLw32bqL-3">
          <mxGeometry relative="1" as="geometry">
            <mxPoint x="170" y="510" as="targetPoint" />
            <Array as="points">
              <mxPoint x="80" y="615" />
              <mxPoint x="80" y="510" />
            </Array>
          </mxGeometry>
        </mxCell>
        <mxCell id="8eiHBntBhr2UdLw32bqL-2" value="消息任务&lt;br&gt;&amp;lt;&amp;lt;Root&amp;gt;&amp;gt;" style="rounded=0;whiteSpace=wrap;html=1;fillColor=#d80073;strokeColor=#A50040;fontColor=#ffffff;" vertex="1" parent="1">
          <mxGeometry x="20" y="584.5" width="120" height="60" as="geometry" />
        </mxCell>
        <mxCell id="8eiHBntBhr2UdLw32bqL-19" style="edgeStyle=orthogonalEdgeStyle;rounded=0;orthogonalLoop=1;jettySize=auto;html=1;exitX=1;exitY=0.5;exitDx=0;exitDy=0;" edge="1" parent="1" source="8eiHBntBhr2UdLw32bqL-3" target="8eiHBntBhr2UdLw32bqL-4">
          <mxGeometry relative="1" as="geometry" />
        </mxCell>
        <mxCell id="8eiHBntBhr2UdLw32bqL-20" value="1：N" style="edgeLabel;html=1;align=center;verticalAlign=middle;resizable=0;points=[];" vertex="1" connectable="0" parent="8eiHBntBhr2UdLw32bqL-19">
          <mxGeometry x="-0.525" relative="1" as="geometry">
            <mxPoint x="21" as="offset" />
          </mxGeometry>
        </mxCell>
        <mxCell id="8eiHBntBhr2UdLw32bqL-21" style="edgeStyle=orthogonalEdgeStyle;rounded=0;orthogonalLoop=1;jettySize=auto;html=1;exitX=1;exitY=1;exitDx=0;exitDy=0;entryX=0;entryY=0.5;entryDx=0;entryDy=0;dashed=1;" edge="1" parent="1" source="8eiHBntBhr2UdLw32bqL-3" target="8eiHBntBhr2UdLw32bqL-6">
          <mxGeometry relative="1" as="geometry" />
        </mxCell>
        <mxCell id="8eiHBntBhr2UdLw32bqL-22" value="1：N" style="edgeLabel;html=1;align=center;verticalAlign=middle;resizable=0;points=[];" vertex="1" connectable="0" parent="8eiHBntBhr2UdLw32bqL-21">
          <mxGeometry x="-0.0133" y="1" relative="1" as="geometry">
            <mxPoint as="offset" />
          </mxGeometry>
        </mxCell>
        <mxCell id="8eiHBntBhr2UdLw32bqL-3" value="消息渠道&lt;br&gt;&amp;lt;&amp;lt;Root&amp;gt;&amp;gt;" style="rounded=0;whiteSpace=wrap;html=1;fillColor=#d80073;strokeColor=#A50040;fontColor=#ffffff;" vertex="1" parent="1">
          <mxGeometry x="180" y="480" width="120" height="60" as="geometry" />
        </mxCell>
        <mxCell id="8eiHBntBhr2UdLw32bqL-29" value="1：N" style="edgeStyle=orthogonalEdgeStyle;rounded=0;orthogonalLoop=1;jettySize=auto;html=1;exitX=1;exitY=0.5;exitDx=0;exitDy=0;endArrow=classic;endFill=1;" edge="1" parent="1" source="8eiHBntBhr2UdLw32bqL-4" target="8eiHBntBhr2UdLw32bqL-5">
          <mxGeometry relative="1" as="geometry" />
        </mxCell>
        <mxCell id="8eiHBntBhr2UdLw32bqL-30" style="edgeStyle=orthogonalEdgeStyle;rounded=0;orthogonalLoop=1;jettySize=auto;html=1;exitX=0.5;exitY=0;exitDx=0;exitDy=0;entryX=0;entryY=0.5;entryDx=0;entryDy=0;endArrow=classic;endFill=1;" edge="1" parent="1" source="8eiHBntBhr2UdLw32bqL-4" target="8eiHBntBhr2UdLw32bqL-7">
          <mxGeometry relative="1" as="geometry" />
        </mxCell>
        <mxCell id="8eiHBntBhr2UdLw32bqL-31" value="1：N" style="edgeLabel;html=1;align=center;verticalAlign=middle;resizable=0;points=[];" vertex="1" connectable="0" parent="8eiHBntBhr2UdLw32bqL-30">
          <mxGeometry x="0.1" y="-2" relative="1" as="geometry">
            <mxPoint as="offset" />
          </mxGeometry>
        </mxCell>
        <mxCell id="8eiHBntBhr2UdLw32bqL-4" value="消息模板" style="rounded=0;whiteSpace=wrap;html=1;" vertex="1" parent="1">
          <mxGeometry x="390" y="480" width="120" height="60" as="geometry" />
        </mxCell>
        <mxCell id="8eiHBntBhr2UdLw32bqL-5" value="消息记录" style="rounded=0;whiteSpace=wrap;html=1;" vertex="1" parent="1">
          <mxGeometry x="590" y="480" width="120" height="60" as="geometry" />
        </mxCell>
        <mxCell id="8eiHBntBhr2UdLw32bqL-6" value="短信签名" style="rounded=0;whiteSpace=wrap;html=1;" vertex="1" parent="1">
          <mxGeometry x="390" y="570" width="120" height="60" as="geometry" />
        </mxCell>
        <mxCell id="8eiHBntBhr2UdLw32bqL-7" value="消息站内信" style="rounded=0;whiteSpace=wrap;html=1;" vertex="1" parent="1">
          <mxGeometry x="590" y="390" width="120" height="60" as="geometry" />
        </mxCell>
        <mxCell id="8eiHBntBhr2UdLw32bqL-28" value="1：N" style="edgeStyle=orthogonalEdgeStyle;rounded=0;orthogonalLoop=1;jettySize=auto;html=1;exitX=1;exitY=0.5;exitDx=0;exitDy=0;endArrow=classic;endFill=1;" edge="1" parent="1" source="8eiHBntBhr2UdLw32bqL-8" target="8eiHBntBhr2UdLw32bqL-1">
          <mxGeometry relative="1" as="geometry" />
        </mxCell>
        <mxCell id="8eiHBntBhr2UdLw32bqL-8" value="用户通用事件" style="rounded=0;whiteSpace=wrap;html=1;" vertex="1" parent="1">
          <mxGeometry x="-160" y="380" width="120" height="60" as="geometry" />
        </mxCell>
      </root>
    </mxGraphModel>
  </diagram>
</mxfile>
